<svg width="41" height="41" viewBox="0 0 41 41" fill="none" xmlns="http://www.w3.org/2000/svg" class="cart-custom">
<path d="M8.75103 6.26549H38.8263L34.7345 20.5868H10.9543M36.7804 28.7705H12.2295L8.13772 2.17368H2M14.2754 36.9541C14.2754 38.0841 13.3595 39 12.2295 39C11.0996 39 10.1836 38.0841 10.1836 36.9541C10.1836 35.8242 11.0996 34.9082 12.2295 34.9082C13.3595 34.9082 14.2754 35.8242 14.2754 36.9541ZM36.7804 36.9541C36.7804 38.0841 35.8645 39 34.7345 39C33.6046 39 32.6886 38.0841 32.6886 36.9541C32.6886 35.8242 33.6046 34.9082 34.7345 34.9082C35.8645 34.9082 36.7804 35.8242 36.7804 36.9541Z" stroke="#00514E" stroke-width="2.67" stroke-linecap="round" stroke-linejoin="round"/>
</svg>
